<svg width="10" height="14" viewBox="0 0 10 14" fill="none" xmlns="http://www.w3.org/2000/svg">
<path d="M8.3577e-07 0.66824L3.10296e-07 12.6897C0.000381873 12.8114 0.0339505 12.9307 0.0970922 13.0347C0.160234 13.1388 0.250557 13.2237 0.358341 13.2802C0.466125 13.3367 0.587288 13.3628 0.708786 13.3556C0.830285 13.3484 0.947519 13.3082 1.04787 13.2393L9.73002 7.22861C10.09 6.9795 10.09 6.37976 9.73002 6.12998L1.04787 0.119261C0.947729 0.0496873 0.830436 0.00888737 0.708735 0.00129452C0.587034 -0.00629833 0.465579 0.0196063 0.357567 0.0761939C0.249555 0.132782 0.159115 0.217888 0.0960762 0.322266C0.033037 0.426645 -0.000191224 0.546303 8.3577e-07 0.66824Z" fill="#B8B8B8"/>
</svg>
