<svg width="10" height="14" viewBox="0 0 10 14" fill="none" xmlns="http://www.w3.org/2000/svg">
<path d="M10 13.3318L10 1.31032C9.99962 1.18861 9.96605 1.0693 9.90291 0.965252C9.83977 0.8612 9.74944 0.776339 9.64166 0.719802C9.53388 0.663266 9.41271 0.637195 9.29121 0.644396C9.16971 0.651598 9.05248 0.691799 8.95213 0.760672L0.269982 6.77139C-0.0899937 7.0205 -0.0899937 7.62024 0.269982 7.87002L8.95213 13.8807C9.05227 13.9503 9.16956 13.9911 9.29127 13.9987C9.41297 14.0063 9.53442 13.9804 9.64243 13.9238C9.75045 13.8672 9.84088 13.7821 9.90392 13.6777C9.96696 13.5734 10.0002 13.4537 10 13.3318Z" fill="#B8B8B8"/>
</svg>
