<svg width="18" height="19" viewBox="0 0 18 19" fill="none" xmlns="http://www.w3.org/2000/svg">
<path fill-rule="evenodd" clip-rule="evenodd" d="M11.3304 13.1161C9.93742 14.2909 8.17118 14.8581 6.39441 14.7012C4.61765 14.5444 2.96523 13.6753 1.77654 12.2726C0.587842 10.8698 -0.0468904 9.03991 0.00270163 7.15862C0.0522937 5.27733 0.782445 3.48749 2.0432 2.1567C3.30395 0.825912 4.99959 0.0551987 6.78187 0.00285172C8.56415 -0.0494953 10.2978 0.620498 11.6267 1.87523C12.9556 3.12995 13.7789 4.87417 13.9275 6.74964C14.0761 8.62511 13.5388 10.4895 12.4258 11.9598L17.7544 17.5833C17.8305 17.6582 17.8916 17.7485 17.934 17.8489C17.9764 17.9492 17.9991 18.0576 18.001 18.1674C18.0028 18.2773 17.9837 18.3864 17.9447 18.4883C17.9057 18.5901 17.8477 18.6827 17.7741 18.7604C17.7005 18.8381 17.6128 18.8993 17.5163 18.9405C17.4198 18.9816 17.3164 19.0018 17.2123 18.9999C17.1082 18.9979 17.0056 18.9739 16.9105 18.9292C16.8155 18.8845 16.7299 18.82 16.6589 18.7396L11.3304 13.1161ZM3.13911 11.4122C2.38059 10.6114 1.86397 9.59131 1.65455 8.48073C1.44513 7.37016 1.5523 6.21898 1.96252 5.17268C2.37274 4.12638 3.0676 3.23192 3.95928 2.60235C4.85096 1.97278 5.89944 1.63636 6.97221 1.6356C8.04497 1.63483 9.09388 1.96977 9.98636 2.59807C10.8788 3.22637 11.5748 4.11984 11.9864 5.16556C12.398 6.21127 12.5066 7.3623 12.2986 8.47317C12.0906 9.58405 11.5753 10.6049 10.8178 11.4067L10.8126 11.4122L10.8074 11.4165C9.78956 12.4885 8.41023 13.0901 6.97241 13.0893C5.5346 13.0884 4.15588 12.4853 3.13911 11.4122Z" fill="#525252"/>
</svg>
